<svg width="91" height="19" fill="none" xmlns="http://www.w3.org/2000/svg"><path d="M12.392 5.16c-1.616-.8-3.256-1.2-4.92-1.2-.752 0-1.32.136-1.704.408-.384.256-.576.6-.576 1.032 0 .672.52 1.152 1.56 1.44 2.512.672 4.28 1.48 5.304 2.424 1.024.928 1.536 2.12 1.536 3.576 0 1.76-.608 3.104-1.824 4.032-1.216.912-3.048 1.368-5.496 1.368-1.024 0-2.128-.168-3.312-.504-1.168-.352-2.104-.784-2.808-1.296l1.08-3.72c.816.56 1.696 1 2.64 1.32.96.32 1.84.48 2.64.48 1.44 0 2.16-.52 2.16-1.56 0-.672-.64-1.192-1.92-1.56-2.336-.672-4-1.48-4.992-2.424S.272 6.84.272 5.4c0-1.584.6-2.84 1.8-3.768C3.288.704 5.008.24 7.232.24c2.368 0 4.368.4 6 1.2l-.84 3.72zm11.743 13.08c-1.584 0-2.76-.36-3.528-1.08-.768-.736-1.152-1.896-1.152-3.48V9.12h-2.52V6h2.52V1.44h4.656V6h3.864v3.12h-3.864v3.84c0 .768.088 1.28.264 1.536.176.256.496.384.96.384.704 0 1.424-.12 2.16-.36l.48 3.24c-1.184.32-2.464.48-3.84.48zm16.63-1.92a4.97 4.97 0 01-1.68 1.416 4.374 4.374 0 01-2.016.504c-1.504 0-2.584-.392-3.24-1.176-.64-.784-.96-2.152-.96-4.104V5.52h4.512v6.96c0 .928.088 1.544.264 1.848.176.288.504.432.984.432.496 0 .936-.272 1.32-.816.4-.544.6-1.192.6-1.944V5.52h4.56V18h-4.2l-.096-1.68h-.048zm8.644-4.56c0-2.064.44-3.656 1.32-4.776.896-1.136 2.096-1.704 3.6-1.704 1.36 0 2.504.56 3.432 1.68h.048V0h4.56v18h-4.2l-.096-1.68h-.048c-1.008 1.28-2.24 1.92-3.696 1.92-1.44 0-2.624-.576-3.552-1.728-.912-1.152-1.368-2.736-1.368-4.752zm4.32 0c0 .96.192 1.704.576 2.232.384.512.872.768 1.464.768.624 0 1.12-.248 1.488-.744.368-.496.552-1.208.552-2.136v-.24c0-.912-.184-1.616-.552-2.112-.368-.512-.864-.768-1.488-.768-.64 0-1.144.256-1.512.768-.352.496-.528 1.24-.528 2.232zm14.255-8.4V0h4.8v3.36h-4.8zm0 14.64V5.52h4.8V18h-4.8zM79.181 7.008c1.152-1.152 2.776-1.728 4.872-1.728s3.72.576 4.872 1.728c1.152 1.152 1.728 2.736 1.728 4.752 0 2.016-.576 3.6-1.728 4.752-1.152 1.152-2.776 1.728-4.872 1.728s-3.72-.576-4.872-1.728c-1.152-1.152-1.728-2.736-1.728-4.752 0-2.016.576-3.6 1.728-4.752zm3.264 7.224c.352.496.888.744 1.608.744.72 0 1.256-.248 1.608-.744.352-.496.528-1.32.528-2.472s-.176-1.976-.528-2.472c-.352-.496-.888-.744-1.608-.744-.72 0-1.256.248-1.608.744-.352.496-.528 1.32-.528 2.472s.176 1.976.528 2.472z" fill="#FCFCFC"/></svg>