<svg width="304" height="24" fill="none" xmlns="http://www.w3.org/2000/svg"><g clip-path="url(#clip0_22_479)" fill-rule="evenodd" clip-rule="evenodd"><path d="M406.308 9.395l-17.581 1.222c-15.627 1.222-50.788 3.666-83.996 2.444s-68.369-6.11-101.577-9.164C169.946.23 134.785-.991 101.577.842c-33.208 1.833-68.37 7.331-83.996 9.775L0 13.061V32h406.307V9.395z" fill="#F18C5C"/><path d="M406.308 9.395l-17.581 1.222c-15.627 1.222-50.788 3.666-83.996 2.444s-68.369-6.11-101.577-9.164C169.946.23 134.785-.991 101.577.842c-33.208 1.833-68.37 7.331-83.996 9.775L0 13.061V32h406.307V9.395z" fill="#fff" fill-opacity=".32"/><path d="M304 12.676l-13.674 1.546c-13.674 1.546-41.021 4.638-68.369 2.319-25.394-2.319-52.742-10.048-80.089-10.821-27.348-.773-54.696 5.41-82.043 4.637C32.477 9.584 5.129 1.855-20.265.31-47.612-1.237-74.96 3.401-88.634 5.72l-13.674 2.32V32H304V12.676z" fill="#F18C5C"/></g><defs><clipPath id="clip0_22_479"><path fill="#fff" transform="matrix(-1 0 0 1 304 0)" d="M0 0h304v24H0z"/></clipPath></defs></svg>